<svg viewBox="0 0 96 96" xmlns="http://www.w3.org/2000/svg" xmlns:xlink="http://www.w3.org/1999/xlink" id="Icons_MusicNote" overflow="hidden"><style>
.MsftOfcThm_Text1_Stroke_v2 {
 stroke:#000000; 
}
</style>
<path d="M56.47 18.93C54.562 17.6915 53.0489 15.932 52.11 13.86L52.11 11.94C52.11 10.007 50.543 8.44 48.61 8.44 46.677 8.44 45.11 10.007 45.11 11.94L45.11 65.16C41.708 64.5802 38.2127 64.9256 34.99 66.16 27.35 68.93 22.66 75.31 24.5 80.4 26.34 85.49 34.04 87.4 41.68 84.61 47 82.64 50.87 79 52.11 75.18L52.11 37.3C52.7608 37.8535 53.4565 38.3519 54.19 38.79 65.93 45.73 59.44 57 65.2 57 72.45 57.06 72.75 29.78 56.47 18.93Z" stroke="#000000" stroke-width="3.84" fill="#FFC000"/></svg>